<svg width="24" height="25" viewBox="0 0 24 25" fill="none" xmlns="http://www.w3.org/2000/svg">
<path d="M19.2981 10.066H4.70211C4.40677 10.0666 4.11538 10.1338 3.84962 10.2627C3.58385 10.3915 3.35056 10.5786 3.16711 10.81C2.98487 11.0412 2.85751 11.3107 2.79463 11.5982C2.73175 11.8858 2.73499 12.1839 2.80411 12.47L4.36911 18.878C4.59529 19.7038 5.08734 20.432 5.76911 20.95C6.45111 21.469 7.28611 21.75 8.14511 21.75H15.8531C16.7121 21.75 17.5471 21.469 18.2291 20.95C18.9109 20.432 19.4029 19.7038 19.6291 18.878L21.1941 12.471C21.2995 12.0391 21.2532 11.584 21.0632 11.1821C20.8731 10.7802 20.5508 10.4557 20.1501 10.263C19.8839 10.1338 19.592 10.0665 19.2961 10.066M8.08711 13.96V17.855M12.0001 13.96V17.855M15.9131 13.96V17.855M18.8481 10.066C18.8478 9.17005 18.6704 8.28299 18.3261 7.45582C17.9819 6.62864 17.4775 5.87765 16.8421 5.246C15.5553 3.96687 13.8145 3.24924 12.0001 3.25C10.1857 3.24924 8.44487 3.96687 7.15811 5.246C6.52287 5.87773 6.01873 6.62876 5.67464 7.45593C5.33056 8.2831 5.15332 9.17012 5.15311 10.066" stroke="black" stroke-width="1.5" stroke-linecap="round" stroke-linejoin="round"/>
</svg>
